<svg width="60" height="60" viewBox="0 0 60 60" fill="none" xmlns="http://www.w3.org/2000/svg">
<path d="M0 29.5C0 12.9315 13.4315 -0.5 30 -0.5H42C51.9411 -0.5 60 7.55888 60 17.5V29.5C60 46.0685 46.5685 59.5 30 59.5H18C8.05888 59.5 0 51.4411 0 41.5V29.5Z" fill="#97BC62"/>
<path d="M17.5 8.99999L30.5 8.49998C30.5 8.49998 39.1172 8.50007 39.9999 8.99999C40.8826 9.49991 45.4492 12.7084 45.9999 13C46.5506 13.2915 47.6762 25.8657 45.9999 27C44.3236 28.1342 35.4999 31.9998 35.4999 31.9998L20.9999 30.9999L18.4999 54.9999M20.5 28.5C22.5549 24.4038 23.2107 16.4184 21 11.5" stroke="white" stroke-width="8"/>
</svg>
